Coordinates
version=1
nRows=37
nColumns=38
inDegrees=no

Units are S.I. units (second, meters, Newtons, ...)
If the header above contains a line with 'inDegrees', this indicates whether rotational values are in degrees (yes) or radians (no).

endheader
time	pelvis_tilt	pelvis_list	pelvis_rotation	pelvis_tx	pelvis_ty	pelvis_tz	hip_flexion_r	hip_adduction_r	hip_rotation_r	knee_angle_r	ankle_angle_r	subtalar_angle_r	mtp_angle_r	hip_flexion_l	hip_adduction_l	hip_rotation_l	knee_angle_l	ankle_angle_l	subtalar_angle_l	mtp_angle_l	lumbar_extension	lumbar_bending	lumbar_rotation	arm_flex_r	arm_add_r	arm_rot_r	elbow_flex_r	pro_sup_r	wrist_flex_r	wrist_dev_r	arm_flex_l	arm_add_l	arm_rot_l	elbow_flex_l	pro_sup_l	wrist_flex_l	wrist_dev_l
1.79	2.95501	1.4032	-1.17011	0.536505	1.60652	0.935178	0.20444	-0.0640958	-0.291182	0.340734	-0.071676	0	0	-0.421986	-0.116638	-0.292931	0.3971	-0.127127	0	0	-0.284712	0.0218893	-0.275366	0.129222	-0.51945	1.22526	0.669516	0.345548	0	0	-0.0541434	-0.408278	-0.098633	1.08566	1.5596	0	0
1.8	2.94035	1.40293	-1.15189	0.536735	1.61863	0.93503	0.199925	-0.0584621	-0.289071	0.343269	-0.0941452	0	0	-0.419184	-0.127195	-0.292185	0.424478	-0.13665	0	0	-0.28165	0.027022	-0.278398	0.124384	-0.518953	1.22474	0.67024	0.345308	0	0	-0.0629314	-0.403859	-0.0992553	1.07941	1.56118	0	0
1.81	2.92736	1.40301	-1.13501	0.536948	1.63099	0.934935	0.194329	-0.0530956	-0.29318	0.347806	-0.116138	0	0	-0.414727	-0.137779	-0.290919	0.454226	-0.148217	0	0	-0.277669	0.0317887	-0.281798	0.118678	-0.518805	1.22391	0.671395	0.344953	0	0	-0.072961	-0.39957	-0.0993437	1.0728	1.56382	0	0
1.82	2.91535	1.40337	-1.11943	0.537215	1.64344	0.934917	0.189222	-0.0479898	-0.300158	0.354898	-0.133368	0	0	-0.40827	-0.148217	-0.288617	0.487095	-0.161981	0	0	-0.273178	0.0361685	-0.285195	0.112648	-0.518619	1.22291	0.672412	0.344512	0	0	-0.0840035	-0.395488	-0.0992694	1.06607	1.56687	0	0
1.83	2.90474	1.40367	-1.1066	0.537578	1.65584	0.934993	0.185579	-0.0434652	-0.305021	0.366585	-0.144138	0	0	-0.399638	-0.157875	-0.285855	0.52374	-0.178425	0	0	-0.268885	0.040007	-0.287656	0.106818	-0.518697	1.22169	0.673553	0.343918	0	0	-0.0956334	-0.391155	-0.0997686	1.05951	1.56967	0	0
1.84	2.89633	1.40399	-1.09755	0.538061	1.66811	0.935158	0.184249	-0.0401825	-0.304536	0.384582	-0.149882	0	0	-0.388408	-0.166551	-0.281443	0.564616	-0.197032	0	0	-0.265045	0.0431507	-0.288899	0.101847	-0.519438	1.22098	0.675593	0.343557	0	0	-0.107573	-0.38686	-0.100249	1.05325	1.5708	0	0
1.85	2.83727	1.40883	-1.04559	0.539281	1.67934	0.935682	0.194498	-0.0283514	-0.281411	0.402598	-0.157026	0	0	-0.364291	-0.177868	-0.276715	0.613283	-0.219061	0	0	-0.255505	0.0510112	-0.281455	0.100509	-0.516323	1.22319	0.667921	0.343422	0	0	-0.113408	-0.379622	-0.0986006	1.03848	1.5708	0	0
1.86	2.8228	1.40741	-1.03228	0.540018	1.69117	0.936248	0.193013	-0.023946	-0.280538	0.426016	-0.15464	0	0	-0.347531	-0.187993	-0.267371	0.663323	-0.23814	0	0	-0.253413	0.0554276	-0.281083	0.0972007	-0.516851	1.22258	0.669568	0.341543	0	0	-0.124899	-0.375347	-0.0988352	1.03154	1.5708	0	0
1.87	2.80438	1.4054	-1.01589	0.540867	1.70274	0.93688	0.190345	-0.018726	-0.283405	0.446116	-0.148912	0	0	-0.327707	-0.198997	-0.256523	0.717127	-0.260686	0	0	-0.252116	0.0607683	-0.279979	0.0944058	-0.517773	1.22166	0.672108	0.338434	0	0	-0.136291	-0.370261	-0.100503	1.02479	1.5708	0	0
1.88	2.78126	1.40175	-0.994923	0.541817	1.71415	0.937596	0.183657	-0.0107296	-0.286325	0.459617	-0.142421	0	0	-0.306459	-0.212084	-0.245287	0.773311	-0.285556	0	0	-0.252153	0.0676306	-0.278833	0.0927007	-0.519287	1.22221	0.675732	0.336727	0	0	-0.148101	-0.364779	-0.10326	1.0189	1.5708	0	0
1.89	2.75721	1.39738	-0.973019	0.542834	1.7254	0.93827	0.174533	-0.00152	-0.288448	0.466057	-0.138443	0	0	-0.283502	-0.225991	-0.233924	0.83136	-0.310329	0	0	-0.252903	0.074917	-0.278055	0.0917406	-0.521404	1.22337	0.680954	0.336159	0	0	-0.16069	-0.359346	-0.106844	1.01429	1.5708	0	0
1.9	2.73869	1.39317	-0.956427	0.543814	1.73652	0.938807	0.164229	0.00670886	-0.293236	0.472297	-0.133058	0	0	-0.259037	-0.238654	-0.222779	0.890948	-0.329076	0	0	-0.253968	0.081167	-0.277993	0.0904786	-0.524291	1.22248	0.68815	0.334937	0	0	-0.173885	-0.354001	-0.11143	1.01121	1.5708	0	0
1.91	2.72721	1.38953	-0.946754	0.544756	1.74748	0.939231	0.152678	0.0137475	-0.298464	0.478224	-0.124546	0	0	-0.233342	-0.249353	-0.211286	0.951769	-0.338274	0	0	-0.255292	0.0859223	-0.278065	0.0887917	-0.52741	1.22037	0.696131	0.333547	0	0	-0.186783	-0.349467	-0.114735	1.00856	1.5708	0	0
1.92	2.72114	1.38641	-0.942617	0.545707	1.75822	0.939664	0.140761	0.0199235	-0.300877	0.48212	-0.115561	0	0	-0.206641	-0.258234	-0.199595	1.01293	-0.339593	0	0	-0.257024	0.0893132	-0.277559	0.0874212	-0.530261	1.21859	0.703608	0.333136	0	0	-0.198401	-0.345783	-0.116101	1.00534	1.5708	0	0
1.93	2.72033	1.38381	-0.943973	0.546689	1.76878	0.940238	0.127625	0.0258013	-0.300821	0.483913	-0.105743	0	0	-0.179552	-0.265148	-0.188078	1.07228	-0.338521	0	0	-0.259166	0.0911588	-0.27632	0.0860881	-0.532193	1.21716	0.709792	0.333402	0	0	-0.208436	-0.342853	-0.116012	1.00122	1.5708	0	0
1.94	2.72547	1.3822	-0.951186	0.547625	1.77906	0.941017	0.113851	0.0305427	-0.299868	0.484516	-0.0951961	0	0	-0.151695	-0.269483	-0.177122	1.12835	-0.336705	0	0	-0.261495	0.0910953	-0.274822	0.0849832	-0.532688	1.21559	0.713892	0.333658	0	0	-0.216772	-0.34064	-0.114122	0.995592	1.5708	0	0
1.95	2.73727	1.38061	-0.964981	0.548541	1.78914	0.942121	0.0978773	0.0344732	-0.299365	0.483421	-0.0841891	0	0	-0.124685	-0.27154	-0.166931	1.17953	-0.325351	0	0	-0.264767	0.0895401	-0.27299	0.0839822	-0.531316	1.21329	0.715271	0.332956	0	0	-0.223406	-0.33911	-0.110439	0.988289	1.5708	0	0
1.96	2.75477	1.37898	-0.984504	0.549408	1.79905	0.943484	0.0798824	0.0373602	-0.300251	0.481119	-0.0728584	0	0	-0.0987974	-0.271468	-0.158367	1.22475	-0.301467	0	0	-0.268852	0.0867646	-0.270835	0.0833499	-0.528876	1.21129	0.71494	0.331728	0	0	-0.228769	-0.337924	-0.105751	0.97986	1.5708	0	0
1.97	2.77298	1.37787	-1.00555	0.55034	1.80882	0.94496	0.0624206	0.0394194	-0.299994	0.475412	-0.0655225	0	0	-0.0732435	-0.269905	-0.151866	1.26385	-0.269839	0	0	-0.272659	0.0831044	-0.267832	0.0836037	-0.52583	1.21107	0.71332	0.331455	0	0	-0.233328	-0.336495	-0.101562	0.970967	1.5708	0	0
1.98	2.7904	1.37704	-1.02642	0.551368	1.81854	0.946461	0.0448212	0.041235	-0.297907	0.466022	-0.0620921	0	0	-0.0483025	-0.267427	-0.146884	1.29748	-0.233288	0	0	-0.275902	0.0789282	-0.264307	0.0842887	-0.522059	1.21221	0.710463	0.331448	0	0	-0.237856	-0.335486	-0.096864	0.961943	1.57044	0	0
1.99	2.80908	1.37593	-1.04911	0.552466	1.82826	0.947992	0.0262524	0.0428673	-0.295285	0.454851	-0.0610698	0	0	-0.0245527	-0.264012	-0.142879	1.32508	-0.206283	0	0	-0.279507	0.0744243	-0.260382	0.0844154	-0.51822	1.21256	0.707933	0.329749	0	0	-0.242677	-0.334737	-0.092135	0.953447	1.57056	0	0
2	2.82844	1.37386	-1.07272	0.553597	1.838	0.949588	0.00472749	0.045834	-0.293138	0.442749	-0.0579938	0	0	-0.00261989	-0.260068	-0.139125	1.34642	-0.184505	0	0	-0.283778	0.0701229	-0.255992	0.0841546	-0.514657	1.2132	0.705998	0.327527	0	0	-0.247434	-0.334522	-0.086447	0.945399	1.57023	0	0
2.01	2.84768	1.37105	-1.09706	0.554754	1.84771	0.951219	-0.0175982	0.0494803	-0.290088	0.428209	-0.0564311	0	0	0.0176025	-0.255385	-0.135935	1.36123	-0.16856	0	0	-0.288669	0.0660532	-0.250777	0.0846684	-0.511537	1.21469	0.704051	0.325863	0	0	-0.251964	-0.334635	-0.0798161	0.93769	1.56943	0	0
2.02	2.86829	1.36839	-1.12394	0.555914	1.85736	0.952751	-0.0386457	0.0518893	-0.28674	0.413947	-0.0572789	0	0	0.036572	-0.24929	-0.133595	1.36967	-0.156255	0	0	-0.293558	0.0613852	-0.244503	0.0852328	-0.508816	1.21566	0.702387	0.323557	0	0	-0.256324	-0.334602	-0.0734154	0.930942	1.56835	0	0
2.03	2.88999	1.36631	-1.15279	0.557088	1.86699	0.954103	-0.0595102	0.0521405	-0.28339	0.399385	-0.0592274	0	0	0.0547616	-0.242076	-0.132713	1.37188	-0.146526	0	0	-0.297838	0.0559612	-0.23751	0.0854016	-0.506527	1.21621	0.701363	0.321055	0	0	-0.260803	-0.334668	-0.0668314	0.925132	1.56782	0	0
2.04	2.91398	1.36482	-1.18419	0.558189	1.87658	0.955279	-0.0812627	0.0492303	-0.281015	0.388461	-0.0576902	0	0	0.0721695	-0.233491	-0.132806	1.36836	-0.138078	0	0	-0.301635	0.0497323	-0.230746	0.0852442	-0.50472	1.21597	0.701218	0.319008	0	0	-0.265892	-0.334468	-0.0613787	0.920754	1.56679	0	0
2.05	2.93792	1.36103	-1.21485	0.55914	1.88596	0.956593	-0.10603	0.0478359	-0.281197	0.379704	-0.0518144	0	0	0.0863807	-0.22525	-0.132562	1.35905	-0.129631	0	0	-0.308222	0.0444109	-0.224181	0.0857294	-0.503292	1.21544	0.701501	0.317164	0	0	-0.270276	-0.335047	-0.0551356	0.91749	1.56474	0	0
2.06	2.95988	1.35997	-1.24558	0.560241	1.8951	0.95746	-0.121804	0.0453492	-0.27433	0.364597	-0.0558842	0	0	0.102445	-0.216081	-0.134014	1.3454	-0.120609	0	0	-0.31243	0.0377217	-0.215908	0.0863138	-0.502223	1.21432	0.70235	0.315304	0	0	-0.274505	-0.336257	-0.0480489	0.915391	1.56062	0	0
2.07	2.97608	1.35113	-1.26802	0.562525	1.90488	0.958662	-0.123299	0.0129772	-0.453004	0.423209	-0.0760692	0	0	0.108587	-0.215622	-0.137289	1.32507	-0.112905	0	0	-0.32234	0.0326224	-0.208758	0.0845214	-0.499127	1.21075	0.705121	0.312817	0	0	-0.282099	-0.343676	-0.0378689	0.919341	1.54852	0	0
2.08	3.0015	1.35751	-1.30427	0.562214	1.9135	0.958852	-0.153015	0.0400077	-0.272424	0.34456	-0.0635194	0	0	0.130035	-0.197746	-0.139627	1.30151	-0.103633	0	0	-0.319501	0.0248939	-0.199839	0.0859174	-0.501635	1.20805	0.706196	0.312195	0	0	-0.282081	-0.338905	-0.0317326	0.912311	1.54352	0	0
2.09	3.01958	1.35506	-1.33002	0.563101	1.92275	0.959466	-0.171284	0.0376641	-0.272428	0.337045	-0.062438	0	0	0.14044	-0.189292	-0.143519	1.27111	-0.0973842	0	0	-0.323792	0.0190783	-0.193364	0.0865017	-0.500899	1.20572	0.707636	0.31082	0	0	-0.28736	-0.338036	-0.0301575	0.911938	1.54236	0	0
2.1	3.03621	1.34983	-1.35329	0.563858	1.93193	0.960203	-0.193366	0.0361165	-0.273671	0.331598	-0.0581516	0	0	0.146145	-0.181465	-0.147892	1.23478	-0.0920999	0	0	-0.331186	0.0143413	-0.187726	0.0878976	-0.500461	1.20398	0.709257	0.310067	0	0	-0.292554	-0.337431	-0.0289117	0.912944	1.53993	0	0
2.11	3.04995	1.34259	-1.37255	0.564472	1.94116	0.96099	-0.220119	0.0358072	-0.276856	0.328294	-0.0481027	0	0	0.147854	-0.17434	-0.152735	1.19295	-0.0889251	0	0	-0.340586	0.0109204	-0.183171	0.0896454	-0.50064	1.2022	0.71155	0.309288	0	0	-0.297479	-0.336581	-0.0280907	0.914627	1.53551	0	0
2.12	3.0628	1.33709	-1.39158	0.56514	1.95036	0.961386	-0.244011	0.0352594	-0.276526	0.318972	-0.0409838	0	0	0.149683	-0.166922	-0.159318	1.1471	-0.0878028	0	0	-0.348313	0.00675185	-0.178029	0.0910083	-0.501103	1.19993	0.714422	0.308219	0	0	-0.302589	-0.335585	-0.028122	0.917054	1.53103	0	0
2.13	3.07204	1.33296	-1.40748	0.565827	1.95954	0.961505	-0.264671	0.0349502	-0.272979	0.30688	-0.0386835	0	0	0.151389	-0.160133	-0.167728	1.0971	-0.0885993	0	0	-0.35431	0.00231706	-0.171898	0.0919907	-0.500783	1.19759	0.715754	0.307176	0	0	-0.308	-0.335335	-0.0271524	0.919057	1.53049	0	0
2.14	3.0778	1.32893	-1.41892	0.566397	1.96869	0.961481	-0.284578	0.0352409	-0.269389	0.295523	-0.0381651	0	0	0.151888	-0.153633	-0.176418	1.04312	-0.0909371	0	0	-0.360024	-0.00114851	-0.166571	0.0930313	-0.500465	1.19535	0.716816	0.306423	0	0	-0.313041	-0.335249	-0.0259877	0.920955	1.53036	0	0
2.15	3.0698	1.31418	-1.41404	0.568197	1.97816	0.962113	-0.297673	0.0134429	-0.446369	0.339158	-0.0568339	0	0	0.138624	-0.156878	-0.189113	0.983866	-0.0992647	0	0	-0.3765	-0.00108817	-0.162467	0.0931724	-0.498872	1.19004	0.721319	0.305519	0	0	-0.32106	-0.340904	-0.0239665	0.930079	1.52407	0	0
